<?xml version="1.0" encoding="UTF-8" standalone="no"?><svg xmlns="http://www.w3.org/2000/svg" xmlns:xlink="http://www.w3.org/1999/xlink" contentScriptType="application/ecmascript" contentStyleType="text/css" height="84px" preserveAspectRatio="none" style="width:173px;height:84px;" version="1.1" viewBox="0 0 173 84" width="173px" zoomAndPan="magnify"><defs><filter height="300%" id="fe87zxm4btrk2" width="300%" x="-1" y="-1"><feGaussianBlur result="blurOut" stdDeviation="2.0"/><feColorMatrix in="blurOut" result="blurOut2" type="matrix" values="0 0 0 0 0 0 0 0 0 0 0 0 0 0 0 0 0 0 .4 0"/><feOffset dx="4.0" dy="4.0" in="blurOut2" result="blurOut3"/><feBlend in="SourceGraphic" in2="blurOut3" mode="normal"/></filter></defs><g><!--MD5=[a46ee5ce0ceb0380cf446a08a056dce4]
class A--><rect codeLine="2" fill="#FEFECE" filter="url(#fe87zxm4btrk2)" height="63.0229" id="A" style="stroke:#A80036;stroke-width:1.5;" width="77" x="7" y="7"/><ellipse cx="39.1" cy="23" fill="#ADD1B2" rx="11" ry="11" style="stroke:#A80036;stroke-width:1.0;"/><path d="M37.6781,28.3594 Q35.8188,28.3594 34.725,26.9688 Q33.6313,25.5781 33.6313,22.5938 Q33.6313,20.0625 34.7953,18.4063 Q35.9594,16.75 37.9438,16.75 Q39.4125,16.75 39.8813,16.875 Q40.35,17.0781 40.35,17.0781 Q40.35,17.0781 40.35,17.0078 Q40.35,16.9375 40.9594,16.0156 L42.0063,19.6719 L40.6781,20.0781 Q40.2094,18.5313 39.5453,17.8672 Q38.8813,17.2031 37.8188,17.2031 Q37.4281,17.2031 36.6625,18.7344 Q35.8969,20.2656 35.8969,22.5156 Q35.8969,24.9844 36.5609,26.375 Q37.225,27.7656 37.7563,27.7656 Q38.8188,27.7656 39.5766,27 Q40.3344,26.2344 40.6781,24.5781 L42.0063,25.1719 Q41.6781,26.5781 40.7797,27.4688 Q39.8813,28.3594 37.6781,28.3594 Z " fill="#000000"/><text fill="#000000" font-family="sans-serif" font-size="12" lengthAdjust="spacingAndGlyphs" textLength="7" x="56.9" y="28.5576">A</text><line style="stroke:#A80036;stroke-width:1.5;" x1="8" x2="83" y1="39" y2="39"/><line style="stroke:#A80036;stroke-width:1.5;" x1="8" x2="83" y1="47" y2="47"/><text fill="#000000" font-family="sans-serif" font-size="11" lengthAdjust="spacingAndGlyphs" textLength="65" x="13" y="63.606">+method(B b)</text><!--MD5=[69c451c751c414e37549b782190fef46]
class B--><rect codeLine="5" fill="#FEFECE" filter="url(#fe87zxm4btrk2)" height="48" id="B" style="stroke:#A80036;stroke-width:1.5;" width="40" x="119.5" y="14.5"/><ellipse cx="134.5" cy="30.5" fill="#ADD1B2" rx="11" ry="11" style="stroke:#A80036;stroke-width:1.0;"/><path d="M133.0781,35.8594 Q131.2188,35.8594 130.125,34.4688 Q129.0313,33.0781 129.0313,30.0938 Q129.0313,27.5625 130.1953,25.9063 Q131.3594,24.25 133.3438,24.25 Q134.8125,24.25 135.2813,24.375 Q135.75,24.5781 135.75,24.5781 Q135.75,24.5781 135.75,24.5078 Q135.75,24.4375 136.3594,23.5156 L137.4063,27.1719 L136.0781,27.5781 Q135.6094,26.0313 134.9453,25.3672 Q134.2813,24.7031 133.2188,24.7031 Q132.8281,24.7031 132.0625,26.2344 Q131.2969,27.7656 131.2969,30.0156 Q131.2969,32.4844 131.9609,33.875 Q132.625,35.2656 133.1563,35.2656 Q134.2188,35.2656 134.9766,34.5 Q135.7344,33.7344 136.0781,32.0781 L137.4063,32.6719 Q137.0781,34.0781 136.1797,34.9688 Q135.2813,35.8594 133.0781,35.8594 Z " fill="#000000"/><text fill="#000000" font-family="sans-serif" font-size="12" lengthAdjust="spacingAndGlyphs" textLength="8" x="148.5" y="36.0576">B</text><line style="stroke:#A80036;stroke-width:1.5;" x1="120.5" x2="158.5" y1="46.5" y2="46.5"/><line style="stroke:#A80036;stroke-width:1.5;" x1="120.5" x2="158.5" y1="54.5" y2="54.5"/><!--MD5=[5e2eec62a50b26b6b0db6c12e4ee289c]
link A to B--><path codeLine="7" d="M84.05,38.5 C94.01,38.5 103.97,38.5 113.93,38.5 " fill="none" id="A-to-B" style="stroke:#A80036;stroke-width:1.0;stroke-dasharray:7.0,7.0;"/><polygon fill="#A80036" points="119.14,38.5,110.14,34.5,114.14,38.5,110.14,42.5,119.14,38.5" style="stroke:#A80036;stroke-width:1.0;"/><!--MD5=[b6735401495862b3f32ed32390375bd7]
@startuml
skinparam classAttributeIconSize 0 
class A {
  +method(B b)
}
class B

A -right..> B

@enduml

PlantUML version 1.2020.22(Sun Dec 06 17:36:27 CST 2020)
(GPL source distribution)
Java Runtime: Java(TM) SE Runtime Environment
JVM: Java HotSpot(TM) 64-Bit Server VM
Default Encoding: GBK
Language: zh
Country: CN
--></g></svg>