<?xml version="1.0" encoding="UTF-8" standalone="no"?><svg xmlns="http://www.w3.org/2000/svg" xmlns:xlink="http://www.w3.org/1999/xlink" contentScriptType="application/ecmascript" contentStyleType="text/css" height="84px" preserveAspectRatio="none" style="width:206px;height:84px;" version="1.1" viewBox="0 0 206 84" width="206px" zoomAndPan="magnify"><defs><filter height="300%" id="f1xwde24lg94f5" width="300%" x="-1" y="-1"><feGaussianBlur result="blurOut" stdDeviation="2.0"/><feColorMatrix in="blurOut" result="blurOut2" type="matrix" values="0 0 0 0 0 0 0 0 0 0 0 0 0 0 0 0 0 0 .4 0"/><feOffset dx="4.0" dy="4.0" in="blurOut2" result="blurOut3"/><feBlend in="SourceGraphic" in2="blurOut3" mode="normal"/></filter></defs><g><!--MD5=[61a83f88cb8b7d3a80bc8c481f3736bf]
class Teacher--><rect codeLine="2" fill="#FEFECE" filter="url(#f1xwde24lg94f5)" height="63.0229" id="Teacher" style="stroke:#A80036;stroke-width:1.5;" width="77" x="7" y="7"/><ellipse cx="22" cy="23" fill="#ADD1B2" rx="11" ry="11" style="stroke:#A80036;stroke-width:1.0;"/><path d="M20.5781,28.3594 Q18.7188,28.3594 17.625,26.9688 Q16.5313,25.5781 16.5313,22.5938 Q16.5313,20.0625 17.6953,18.4063 Q18.8594,16.75 20.8438,16.75 Q22.3125,16.75 22.7813,16.875 Q23.25,17.0781 23.25,17.0781 Q23.25,17.0781 23.25,17.0078 Q23.25,16.9375 23.8594,16.0156 L24.9063,19.6719 L23.5781,20.0781 Q23.1094,18.5313 22.4453,17.8672 Q21.7813,17.2031 20.7188,17.2031 Q20.3281,17.2031 19.5625,18.7344 Q18.7969,20.2656 18.7969,22.5156 Q18.7969,24.9844 19.4609,26.375 Q20.125,27.7656 20.6563,27.7656 Q21.7188,27.7656 22.4766,27 Q23.2344,26.2344 23.5781,24.5781 L24.9063,25.1719 Q24.5781,26.5781 23.6797,27.4688 Q22.7813,28.3594 20.5781,28.3594 Z " fill="#000000"/><text fill="#000000" font-family="sans-serif" font-size="12" lengthAdjust="spacingAndGlyphs" textLength="45" x="36" y="28.5576">Teacher</text><line style="stroke:#A80036;stroke-width:1.5;" x1="8" x2="83" y1="39" y2="39"/><text fill="#000000" font-family="sans-serif" font-size="11" lengthAdjust="spacingAndGlyphs" textLength="41" x="13" y="55.606">+Course</text><line style="stroke:#A80036;stroke-width:1.5;" x1="8" x2="83" y1="62.0229" y2="62.0229"/><!--MD5=[4066b0363c5a91ff3b6e03e0428953a9]
class Course--><rect codeLine="5" fill="#FEFECE" filter="url(#f1xwde24lg94f5)" height="48" id="Course" style="stroke:#A80036;stroke-width:1.5;" width="73" x="119" y="14.5"/><ellipse cx="134" cy="30.5" fill="#ADD1B2" rx="11" ry="11" style="stroke:#A80036;stroke-width:1.0;"/><path d="M132.5781,35.8594 Q130.7188,35.8594 129.625,34.4688 Q128.5313,33.0781 128.5313,30.0938 Q128.5313,27.5625 129.6953,25.9063 Q130.8594,24.25 132.8438,24.25 Q134.3125,24.25 134.7813,24.375 Q135.25,24.5781 135.25,24.5781 Q135.25,24.5781 135.25,24.5078 Q135.25,24.4375 135.8594,23.5156 L136.9063,27.1719 L135.5781,27.5781 Q135.1094,26.0313 134.4453,25.3672 Q133.7813,24.7031 132.7188,24.7031 Q132.3281,24.7031 131.5625,26.2344 Q130.7969,27.7656 130.7969,30.0156 Q130.7969,32.4844 131.4609,33.875 Q132.125,35.2656 132.6563,35.2656 Q133.7188,35.2656 134.4766,34.5 Q135.2344,33.7344 135.5781,32.0781 L136.9063,32.6719 Q136.5781,34.0781 135.6797,34.9688 Q134.7813,35.8594 132.5781,35.8594 Z " fill="#000000"/><text fill="#000000" font-family="sans-serif" font-size="12" lengthAdjust="spacingAndGlyphs" textLength="41" x="148" y="36.0576">Course</text><line style="stroke:#A80036;stroke-width:1.5;" x1="120" x2="191" y1="46.5" y2="46.5"/><line style="stroke:#A80036;stroke-width:1.5;" x1="120" x2="191" y1="54.5" y2="54.5"/><!--MD5=[c23d87697d59a5625890325406da6336]
link Teacher to Course--><path codeLine="7" d="M84.17,38.5 C93.98,38.5 103.79,38.5 113.59,38.5 " fill="none" id="Teacher-to-Course" style="stroke:#A80036;stroke-width:1.0;"/><polygon fill="#A80036" points="118.72,38.5,109.72,34.5,113.72,38.5,109.72,42.5,118.72,38.5" style="stroke:#A80036;stroke-width:1.0;"/><!--MD5=[38c92d5ea63f0ec1ee01e058da0478d6]
@startuml
skinparam classAttributeIconSize 0 
class Teacher {
  +Course
}
class Course

Teacher -right- -> Course

@enduml

PlantUML version 1.2020.22(Sun Dec 06 17:36:27 CST 2020)
(GPL source distribution)
Java Runtime: Java(TM) SE Runtime Environment
JVM: Java HotSpot(TM) 64-Bit Server VM
Default Encoding: GBK
Language: zh
Country: CN
--></g></svg>