<?xml version="1.0" encoding="UTF-8" standalone="no"?><svg xmlns="http://www.w3.org/2000/svg" xmlns:xlink="http://www.w3.org/1999/xlink" contentScriptType="application/ecmascript" contentStyleType="text/css" height="177px" preserveAspectRatio="none" style="width:80px;height:177px;" version="1.1" viewBox="0 0 80 177" width="80px" zoomAndPan="magnify"><defs><filter height="300%" id="f5c8cjbzomvi5" width="300%" x="-1" y="-1"><feGaussianBlur result="blurOut" stdDeviation="2.0"/><feColorMatrix in="blurOut" result="blurOut2" type="matrix" values="0 0 0 0 0 0 0 0 0 0 0 0 0 0 0 0 0 0 .4 0"/><feOffset dx="4.0" dy="4.0" in="blurOut2" result="blurOut3"/><feBlend in="SourceGraphic" in2="blurOut3" mode="normal"/></filter></defs><g><!--MD5=[d4ae6745451ae64868ce55aa57df0395]
class IDog--><rect codeLine="1" fill="#FEFECE" filter="url(#f5c8cjbzomvi5)" height="48" id="IDog" style="stroke:#A80036;stroke-width:1.5;" width="59" x="7" y="7"/><ellipse cx="22" cy="23" fill="#B4A7E5" rx="11" ry="11" style="stroke:#A80036;stroke-width:1.0;"/><path d="M18.5938,17.2813 L18.5938,16.875 L24.9063,16.875 L24.9063,17.2813 L22.375,17.2813 Q22.375,17.2813 22.5234,17.4141 Q22.6719,17.5469 22.6719,17.8125 L22.6719,27.2969 Q22.6719,27.5625 22.8906,27.6953 Q23.1094,27.8281 23.1094,27.8281 L24.9063,27.8281 L24.9063,28.2344 L18.5938,28.2344 L18.5938,27.8281 L20.125,27.8281 Q20.4531,27.8281 20.5859,27.6953 Q20.7188,27.5625 20.7188,27.2969 L20.7188,17.8125 Q20.7188,17.5469 20.5859,17.4141 Q20.4531,17.2813 20.125,17.2813 L18.5938,17.2813 Z " fill="#000000"/><text fill="#000000" font-family="sans-serif" font-size="12" font-style="italic" lengthAdjust="spacingAndGlyphs" textLength="27" x="36" y="28.5576">IDog</text><line style="stroke:#A80036;stroke-width:1.5;" x1="8" x2="65" y1="39" y2="39"/><line style="stroke:#A80036;stroke-width:1.5;" x1="8" x2="65" y1="47" y2="47"/><!--MD5=[454ed48f055567edc734f170f61b4daf]
class Dog--><rect codeLine="2" fill="#FEFECE" filter="url(#f5c8cjbzomvi5)" height="48" id="Dog" style="stroke:#A80036;stroke-width:1.5;" width="55" x="9" y="115"/><ellipse cx="24" cy="131" fill="#ADD1B2" rx="11" ry="11" style="stroke:#A80036;stroke-width:1.0;"/><path d="M22.5781,136.3594 Q20.7188,136.3594 19.625,134.9688 Q18.5313,133.5781 18.5313,130.5938 Q18.5313,128.0625 19.6953,126.4063 Q20.8594,124.75 22.8438,124.75 Q24.3125,124.75 24.7813,124.875 Q25.25,125.0781 25.25,125.0781 Q25.25,125.0781 25.25,125.0078 Q25.25,124.9375 25.8594,124.0156 L26.9063,127.6719 L25.5781,128.0781 Q25.1094,126.5313 24.4453,125.8672 Q23.7813,125.2031 22.7188,125.2031 Q22.3281,125.2031 21.5625,126.7344 Q20.7969,128.2656 20.7969,130.5156 Q20.7969,132.9844 21.4609,134.375 Q22.125,135.7656 22.6563,135.7656 Q23.7188,135.7656 24.4766,135 Q25.2344,134.2344 25.5781,132.5781 L26.9063,133.1719 Q26.5781,134.5781 25.6797,135.4688 Q24.7813,136.3594 22.5781,136.3594 Z " fill="#000000"/><text fill="#000000" font-family="sans-serif" font-size="12" lengthAdjust="spacingAndGlyphs" textLength="23" x="38" y="136.5576">Dog</text><line style="stroke:#A80036;stroke-width:1.5;" x1="10" x2="63" y1="147" y2="147"/><line style="stroke:#A80036;stroke-width:1.5;" x1="10" x2="63" y1="155" y2="155"/><!--MD5=[f2b86c4315162f91c9fadfada299dec9]
reverse link IDog to Dog--><path codeLine="4" d="M36.5,75.02 C36.5,88.58 36.5,103.04 36.5,114.68 " fill="none" id="IDog-backto-Dog" style="stroke:#A80036;stroke-width:1.0;stroke-dasharray:7.0,7.0;"/><polygon fill="none" points="29.5,75,36.5,55,43.5,75,29.5,75" style="stroke:#A80036;stroke-width:1.0;"/><!--MD5=[ae87ac40945d5f288a0ade9d28f0f47c]
@startuml
interface IDog
class Dog

IDog <|.. Dog
@enduml

PlantUML version 1.2020.22(Sun Dec 06 17:36:27 CST 2020)
(GPL source distribution)
Java Runtime: Java(TM) SE Runtime Environment
JVM: Java HotSpot(TM) 64-Bit Server VM
Default Encoding: GBK
Language: zh
Country: CN
--></g></svg>