<?xml version="1.0" encoding="UTF-8" standalone="no"?><svg xmlns="http://www.w3.org/2000/svg" xmlns:xlink="http://www.w3.org/1999/xlink" contentScriptType="application/ecmascript" contentStyleType="text/css" height="177px" preserveAspectRatio="none" style="width:88px;height:177px;" version="1.1" viewBox="0 0 88 177" width="88px" zoomAndPan="magnify"><defs><filter height="300%" id="f2u6gtae5pf0k" width="300%" x="-1" y="-1"><feGaussianBlur result="blurOut" stdDeviation="2.0"/><feColorMatrix in="blurOut" result="blurOut2" type="matrix" values="0 0 0 0 0 0 0 0 0 0 0 0 0 0 0 0 0 0 .4 0"/><feOffset dx="4.0" dy="4.0" in="blurOut2" result="blurOut3"/><feBlend in="SourceGraphic" in2="blurOut3" mode="normal"/></filter></defs><g><!--MD5=[133270ec2e88fd8378815085b31c1de9]
class Father--><rect codeLine="1" fill="#FEFECE" filter="url(#f2u6gtae5pf0k)" height="48" id="Father" style="stroke:#A80036;stroke-width:1.5;" width="67" x="7" y="7"/><ellipse cx="22" cy="23" fill="#ADD1B2" rx="11" ry="11" style="stroke:#A80036;stroke-width:1.0;"/><path d="M20.5781,28.3594 Q18.7188,28.3594 17.625,26.9688 Q16.5313,25.5781 16.5313,22.5938 Q16.5313,20.0625 17.6953,18.4063 Q18.8594,16.75 20.8438,16.75 Q22.3125,16.75 22.7813,16.875 Q23.25,17.0781 23.25,17.0781 Q23.25,17.0781 23.25,17.0078 Q23.25,16.9375 23.8594,16.0156 L24.9063,19.6719 L23.5781,20.0781 Q23.1094,18.5313 22.4453,17.8672 Q21.7813,17.2031 20.7188,17.2031 Q20.3281,17.2031 19.5625,18.7344 Q18.7969,20.2656 18.7969,22.5156 Q18.7969,24.9844 19.4609,26.375 Q20.125,27.7656 20.6563,27.7656 Q21.7188,27.7656 22.4766,27 Q23.2344,26.2344 23.5781,24.5781 L24.9063,25.1719 Q24.5781,26.5781 23.6797,27.4688 Q22.7813,28.3594 20.5781,28.3594 Z " fill="#000000"/><text fill="#000000" font-family="sans-serif" font-size="12" lengthAdjust="spacingAndGlyphs" textLength="35" x="36" y="28.5576">Father</text><line style="stroke:#A80036;stroke-width:1.5;" x1="8" x2="73" y1="39" y2="39"/><line style="stroke:#A80036;stroke-width:1.5;" x1="8" x2="73" y1="47" y2="47"/><!--MD5=[e4cfc263935e8a1ed98a6ff3a1cdabdd]
class Son--><rect codeLine="2" fill="#FEFECE" filter="url(#f2u6gtae5pf0k)" height="48" id="Son" style="stroke:#A80036;stroke-width:1.5;" width="54" x="13.5" y="115"/><ellipse cx="28.5" cy="131" fill="#ADD1B2" rx="11" ry="11" style="stroke:#A80036;stroke-width:1.0;"/><path d="M27.0781,136.3594 Q25.2188,136.3594 24.125,134.9688 Q23.0313,133.5781 23.0313,130.5938 Q23.0313,128.0625 24.1953,126.4063 Q25.3594,124.75 27.3438,124.75 Q28.8125,124.75 29.2813,124.875 Q29.75,125.0781 29.75,125.0781 Q29.75,125.0781 29.75,125.0078 Q29.75,124.9375 30.3594,124.0156 L31.4063,127.6719 L30.0781,128.0781 Q29.6094,126.5313 28.9453,125.8672 Q28.2813,125.2031 27.2188,125.2031 Q26.8281,125.2031 26.0625,126.7344 Q25.2969,128.2656 25.2969,130.5156 Q25.2969,132.9844 25.9609,134.375 Q26.625,135.7656 27.1563,135.7656 Q28.2188,135.7656 28.9766,135 Q29.7344,134.2344 30.0781,132.5781 L31.4063,133.1719 Q31.0781,134.5781 30.1797,135.4688 Q29.2813,136.3594 27.0781,136.3594 Z " fill="#000000"/><text fill="#000000" font-family="sans-serif" font-size="12" lengthAdjust="spacingAndGlyphs" textLength="22" x="42.5" y="136.5576">Son</text><line style="stroke:#A80036;stroke-width:1.5;" x1="14.5" x2="66.5" y1="147" y2="147"/><line style="stroke:#A80036;stroke-width:1.5;" x1="14.5" x2="66.5" y1="155" y2="155"/><!--MD5=[4e9b6756a931add4f5a51bbfb35e8c86]
reverse link Father to Son--><path codeLine="4" d="M40.5,75.02 C40.5,88.58 40.5,103.04 40.5,114.68 " fill="none" id="Father-backto-Son" style="stroke:#A80036;stroke-width:1.0;"/><polygon fill="none" points="33.5,75,40.5,55,47.5,75,33.5,75" style="stroke:#A80036;stroke-width:1.0;"/><!--MD5=[e471d317acc3058b30ac57f98245d82b]
@startuml
class Father
class Son

Father <|- - Son
@enduml

PlantUML version 1.2020.22(Sun Dec 06 17:36:27 CST 2020)
(GPL source distribution)
Java Runtime: Java(TM) SE Runtime Environment
JVM: Java HotSpot(TM) 64-Bit Server VM
Default Encoding: GBK
Language: zh
Country: CN
--></g></svg>