<?xml version="1.0" encoding="UTF-8" standalone="no"?><svg xmlns="http://www.w3.org/2000/svg" xmlns:xlink="http://www.w3.org/1999/xlink" contentScriptType="application/ecmascript" contentStyleType="text/css" height="177px" preserveAspectRatio="none" style="width:171px;height:177px;" version="1.1" viewBox="0 0 171 177" width="171px" zoomAndPan="magnify"><defs><filter height="300%" id="f4p42hs0do0g7" width="300%" x="-1" y="-1"><feGaussianBlur result="blurOut" stdDeviation="2.0"/><feColorMatrix in="blurOut" result="blurOut2" type="matrix" values="0 0 0 0 0 0 0 0 0 0 0 0 0 0 0 0 0 0 .4 0"/><feOffset dx="4.0" dy="4.0" in="blurOut2" result="blurOut3"/><feBlend in="SourceGraphic" in2="blurOut3" mode="normal"/></filter></defs><g><!--MD5=[2e69174041fa7eb3bebc5f460ee56291]
class Human--><rect codeLine="2" fill="#FEFECE" filter="url(#f4p42hs0do0g7)" height="48" id="Human" style="stroke:#A80036;stroke-width:1.5;" width="73" x="43" y="7"/><ellipse cx="58" cy="23" fill="#ADD1B2" rx="11" ry="11" style="stroke:#A80036;stroke-width:1.0;"/><path d="M56.5781,28.3594 Q54.7188,28.3594 53.625,26.9688 Q52.5313,25.5781 52.5313,22.5938 Q52.5313,20.0625 53.6953,18.4063 Q54.8594,16.75 56.8438,16.75 Q58.3125,16.75 58.7813,16.875 Q59.25,17.0781 59.25,17.0781 Q59.25,17.0781 59.25,17.0078 Q59.25,16.9375 59.8594,16.0156 L60.9063,19.6719 L59.5781,20.0781 Q59.1094,18.5313 58.4453,17.8672 Q57.7813,17.2031 56.7188,17.2031 Q56.3281,17.2031 55.5625,18.7344 Q54.7969,20.2656 54.7969,22.5156 Q54.7969,24.9844 55.4609,26.375 Q56.125,27.7656 56.6563,27.7656 Q57.7188,27.7656 58.4766,27 Q59.2344,26.2344 59.5781,24.5781 L60.9063,25.1719 Q60.5781,26.5781 59.6797,27.4688 Q58.7813,28.3594 56.5781,28.3594 Z " fill="#000000"/><text fill="#000000" font-family="sans-serif" font-size="12" lengthAdjust="spacingAndGlyphs" textLength="41" x="72" y="28.5576">Human</text><line style="stroke:#A80036;stroke-width:1.5;" x1="44" x2="115" y1="39" y2="39"/><line style="stroke:#A80036;stroke-width:1.5;" x1="44" x2="115" y1="47" y2="47"/><!--MD5=[ad470ab557fe2802209af71247a1792b]
class Leg--><rect codeLine="3" fill="#FEFECE" filter="url(#f4p42hs0do0g7)" height="48" id="Leg" style="stroke:#A80036;stroke-width:1.5;" width="53" x="7" y="115"/><ellipse cx="22" cy="131" fill="#ADD1B2" rx="11" ry="11" style="stroke:#A80036;stroke-width:1.0;"/><path d="M20.5781,136.3594 Q18.7188,136.3594 17.625,134.9688 Q16.5313,133.5781 16.5313,130.5938 Q16.5313,128.0625 17.6953,126.4063 Q18.8594,124.75 20.8438,124.75 Q22.3125,124.75 22.7813,124.875 Q23.25,125.0781 23.25,125.0781 Q23.25,125.0781 23.25,125.0078 Q23.25,124.9375 23.8594,124.0156 L24.9063,127.6719 L23.5781,128.0781 Q23.1094,126.5313 22.4453,125.8672 Q21.7813,125.2031 20.7188,125.2031 Q20.3281,125.2031 19.5625,126.7344 Q18.7969,128.2656 18.7969,130.5156 Q18.7969,132.9844 19.4609,134.375 Q20.125,135.7656 20.6563,135.7656 Q21.7188,135.7656 22.4766,135 Q23.2344,134.2344 23.5781,132.5781 L24.9063,133.1719 Q24.5781,134.5781 23.6797,135.4688 Q22.7813,136.3594 20.5781,136.3594 Z " fill="#000000"/><text fill="#000000" font-family="sans-serif" font-size="12" lengthAdjust="spacingAndGlyphs" textLength="21" x="36" y="136.5576">Leg</text><line style="stroke:#A80036;stroke-width:1.5;" x1="8" x2="59" y1="147" y2="147"/><line style="stroke:#A80036;stroke-width:1.5;" x1="8" x2="59" y1="155" y2="155"/><!--MD5=[4741ae9b66e8c8909830097dcbdef570]
class Head--><rect codeLine="4" fill="#FEFECE" filter="url(#f4p42hs0do0g7)" height="48" id="Head" style="stroke:#A80036;stroke-width:1.5;" width="62" x="95.5" y="115"/><ellipse cx="110.5" cy="131" fill="#ADD1B2" rx="11" ry="11" style="stroke:#A80036;stroke-width:1.0;"/><path d="M109.0781,136.3594 Q107.2188,136.3594 106.125,134.9688 Q105.0313,133.5781 105.0313,130.5938 Q105.0313,128.0625 106.1953,126.4063 Q107.3594,124.75 109.3438,124.75 Q110.8125,124.75 111.2813,124.875 Q111.75,125.0781 111.75,125.0781 Q111.75,125.0781 111.75,125.0078 Q111.75,124.9375 112.3594,124.0156 L113.4063,127.6719 L112.0781,128.0781 Q111.6094,126.5313 110.9453,125.8672 Q110.2813,125.2031 109.2188,125.2031 Q108.8281,125.2031 108.0625,126.7344 Q107.2969,128.2656 107.2969,130.5156 Q107.2969,132.9844 107.9609,134.375 Q108.625,135.7656 109.1563,135.7656 Q110.2188,135.7656 110.9766,135 Q111.7344,134.2344 112.0781,132.5781 L113.4063,133.1719 Q113.0781,134.5781 112.1797,135.4688 Q111.2813,136.3594 109.0781,136.3594 Z " fill="#000000"/><text fill="#000000" font-family="sans-serif" font-size="12" lengthAdjust="spacingAndGlyphs" textLength="30" x="124.5" y="136.5576">Head</text><line style="stroke:#A80036;stroke-width:1.5;" x1="96.5" x2="156.5" y1="147" y2="147"/><line style="stroke:#A80036;stroke-width:1.5;" x1="96.5" x2="156.5" y1="155" y2="155"/><!--MD5=[aeea07f8ff2614f9dd905f4968b0d0d0]
reverse link Human to Head--><path codeLine="7" d="M94.99,66.94 C101.94,82.61 109.95,100.68 116.16,114.68 " fill="none" id="Human-backto-Head" style="stroke:#A80036;stroke-width:1.0;"/><polygon fill="#A80036" points="89.7,55,88.476,62.1065,94.5651,65.9695,95.7891,58.8631,89.7,55" style="stroke:#A80036;stroke-width:1.0;"/><!--MD5=[78491f115bfb3d5936dfcf941cac2ed2]
reverse link Human to Leg--><path codeLine="8" d="M64.34,66.94 C57.54,82.61 49.69,100.68 43.62,114.68 " fill="none" id="Human-backto-Leg" style="stroke:#A80036;stroke-width:1.0;"/><polygon fill="#A80036" points="69.52,55,63.4595,58.9078,64.7358,66.0051,70.7962,62.0973,69.52,55" style="stroke:#A80036;stroke-width:1.0;"/><!--MD5=[3cb9e51e2d6213181978e97773d93cad]
@startuml UMLç»„åˆ
skinparam classAttributeIconSize 0
class Human 
class Leg
class Head


Human *- - Head
Human *- - Leg
@enduml

PlantUML version 1.2020.22(Sun Dec 06 17:36:27 CST 2020)
(GPL source distribution)
Java Runtime: Java(TM) SE Runtime Environment
JVM: Java HotSpot(TM) 64-Bit Server VM
Default Encoding: GBK
Language: zh
Country: CN
--></g></svg>