<?xml version="1.0" encoding="UTF-8" standalone="no"?><svg xmlns="http://www.w3.org/2000/svg" xmlns:xlink="http://www.w3.org/1999/xlink" contentScriptType="application/ecmascript" contentStyleType="text/css" height="104px" preserveAspectRatio="none" style="width:247px;height:104px;" version="1.1" viewBox="0 0 247 104" width="247px" zoomAndPan="magnify"><defs><filter height="300%" id="f95m21046hhse" width="300%" x="-1" y="-1"><feGaussianBlur result="blurOut" stdDeviation="2.0"/><feColorMatrix in="blurOut" result="blurOut2" type="matrix" values="0 0 0 0 0 0 0 0 0 0 0 0 0 0 0 0 0 0 .4 0"/><feOffset dx="4.0" dy="4.0" in="blurOut2" result="blurOut3"/><feBlend in="SourceGraphic" in2="blurOut3" mode="normal"/></filter></defs><g><!--MD5=[61a83f88cb8b7d3a80bc8c481f3736bf]
class Teacher--><rect codeLine="3" fill="#FEFECE" filter="url(#f95m21046hhse)" height="78.0459" id="Teacher" style="stroke:#A80036;stroke-width:1.5;" width="77" x="7" y="7"/><ellipse cx="22" cy="23" fill="#ADD1B2" rx="11" ry="11" style="stroke:#A80036;stroke-width:1.0;"/><path d="M20.5781,28.3594 Q18.7188,28.3594 17.625,26.9688 Q16.5313,25.5781 16.5313,22.5938 Q16.5313,20.0625 17.6953,18.4063 Q18.8594,16.75 20.8438,16.75 Q22.3125,16.75 22.7813,16.875 Q23.25,17.0781 23.25,17.0781 Q23.25,17.0781 23.25,17.0078 Q23.25,16.9375 23.8594,16.0156 L24.9063,19.6719 L23.5781,20.0781 Q23.1094,18.5313 22.4453,17.8672 Q21.7813,17.2031 20.7188,17.2031 Q20.3281,17.2031 19.5625,18.7344 Q18.7969,20.2656 18.7969,22.5156 Q18.7969,24.9844 19.4609,26.375 Q20.125,27.7656 20.6563,27.7656 Q21.7188,27.7656 22.4766,27 Q23.2344,26.2344 23.5781,24.5781 L24.9063,25.1719 Q24.5781,26.5781 23.6797,27.4688 Q22.7813,28.3594 20.5781,28.3594 Z " fill="#000000"/><text fill="#000000" font-family="sans-serif" font-size="12" lengthAdjust="spacingAndGlyphs" textLength="45" x="36" y="28.5576">Teacher</text><line style="stroke:#A80036;stroke-width:1.5;" x1="8" x2="83" y1="39" y2="39"/><text fill="#000000" font-family="sans-serif" font-size="11" lengthAdjust="spacingAndGlyphs" textLength="41" x="13" y="55.606">+Course</text><text fill="#000000" font-family="sans-serif" font-size="11" lengthAdjust="spacingAndGlyphs" textLength="49" x="13" y="70.6289">+Students</text><line style="stroke:#A80036;stroke-width:1.5;" x1="8" x2="83" y1="77.0459" y2="77.0459"/><!--MD5=[0a4a9e0c1d554d526c059f2809706e44]
class Students--><rect codeLine="7" fill="#FEFECE" filter="url(#f95m21046hhse)" height="48" id="Students" style="stroke:#A80036;stroke-width:1.5;" width="81" x="152" y="42"/><ellipse cx="167" cy="58" fill="#ADD1B2" rx="11" ry="11" style="stroke:#A80036;stroke-width:1.0;"/><path d="M165.5781,63.3594 Q163.7188,63.3594 162.625,61.9688 Q161.5313,60.5781 161.5313,57.5938 Q161.5313,55.0625 162.6953,53.4063 Q163.8594,51.75 165.8438,51.75 Q167.3125,51.75 167.7813,51.875 Q168.25,52.0781 168.25,52.0781 Q168.25,52.0781 168.25,52.0078 Q168.25,51.9375 168.8594,51.0156 L169.9063,54.6719 L168.5781,55.0781 Q168.1094,53.5313 167.4453,52.8672 Q166.7813,52.2031 165.7188,52.2031 Q165.3281,52.2031 164.5625,53.7344 Q163.7969,55.2656 163.7969,57.5156 Q163.7969,59.9844 164.4609,61.375 Q165.125,62.7656 165.6563,62.7656 Q166.7188,62.7656 167.4766,62 Q168.2344,61.2344 168.5781,59.5781 L169.9063,60.1719 Q169.5781,61.5781 168.6797,62.4688 Q167.7813,63.3594 165.5781,63.3594 Z " fill="#000000"/><text fill="#000000" font-family="sans-serif" font-size="12" lengthAdjust="spacingAndGlyphs" textLength="49" x="181" y="63.5576">Students</text><line style="stroke:#A80036;stroke-width:1.5;" x1="153" x2="232" y1="74" y2="74"/><line style="stroke:#A80036;stroke-width:1.5;" x1="153" x2="232" y1="82" y2="82"/><!--MD5=[6f71f8b1636e7a85a9c2967d9fd6b270]
reverse link Teacher to Students--><path codeLine="9" d="M98.63,66 C116.91,66 135.94,66 151.99,66 " fill="none" id="Teacher-backto-Students" style="stroke:#A80036;stroke-width:1.0;"/><polygon fill="#FFFFFF" points="85.5,66,91.5,70,97.5,66,91.5,62,85.5,66" style="stroke:#A80036;stroke-width:1.0;"/><!--MD5=[ebd09a0e413b470b4785d1dc38b7c824]
@startuml
skinparam classAttributeIconSize 0 
left to right direction
class Teacher {
  +Course
  +Students
}
class Students 

Teacher::Students o- - Students
@enduml

PlantUML version 1.2020.22(Sun Dec 06 17:36:27 CST 2020)
(GPL source distribution)
Java Runtime: Java(TM) SE Runtime Environment
JVM: Java HotSpot(TM) 64-Bit Server VM
Default Encoding: GBK
Language: zh
Country: CN
--></g></svg>